<svg id="visual" viewBox="0 0 900 600" width="900" height="600" xmlns="http://www.w3.org/2000/svg" xmlns:xlink="http://www.w3.org/1999/xlink" version="1.1"><rect x="0" y="0" width="900" height="600" fill="#001220"></rect><path d="M505 600L510.8 575C516.7 550 528.3 500 544.8 450C561.3 400 582.7 350 595.7 300C608.7 250 613.3 200 597 150C580.7 100 543.3 50 524.7 25L506 0L900 0L900 25C900 50 900 100 900 150C900 200 900 250 900 300C900 350 900 400 900 450C900 500 900 550 900 575L900 600Z" fill="#031c4c"></path><path d="M636 600L634.2 575C632.3 550 628.7 500 619.7 450C610.7 400 596.3 350 587.8 300C579.3 250 576.7 200 580.7 150C584.7 100 595.3 50 600.7 25L606 0L900 0L900 25C900 50 900 100 900 150C900 200 900 250 900 300C900 350 900 400 900 450C900 500 900 550 900 575L900 600Z" fill="#273365"></path><path d="M621 600L619.8 575C618.7 550 616.3 500 622 450C627.7 400 641.3 350 644 300C646.7 250 638.3 200 644.5 150C650.7 100 671.3 50 681.7 25L692 0L900 0L900 25C900 50 900 100 900 150C900 200 900 250 900 300C900 350 900 400 900 450C900 500 900 550 900 575L900 600Z" fill="#444c7e"></path><path d="M634 600L637.3 575C640.7 550 647.3 500 652.2 450C657 400 660 350 672.2 300C684.3 250 705.7 200 719.8 150C734 100 741 50 744.5 25L748 0L900 0L900 25C900 50 900 100 900 150C900 200 900 250 900 300C900 350 900 400 900 450C900 500 900 550 900 575L900 600Z" fill="#616699"></path><path d="M768 600L756.7 575C745.3 550 722.7 500 715.7 450C708.7 400 717.3 350 729 300C740.7 250 755.3 200 763.2 150C771 100 772 50 772.5 25L773 0L900 0L900 25C900 50 900 100 900 150C900 200 900 250 900 300C900 350 900 400 900 450C900 500 900 550 900 575L900 600Z" fill="#7e82b5"></path><path d="M788 600L782.5 575C777 550 766 500 758.8 450C751.7 400 748.3 350 751.7 300C755 250 765 200 770.2 150C775.3 100 775.7 50 775.8 25L776 0L900 0L900 25C900 50 900 100 900 150C900 200 900 250 900 300C900 350 900 400 900 450C900 500 900 550 900 575L900 600Z" fill="#9c9fd1"></path><path d="M803 600L807.5 575C812 550 821 500 829 450C837 400 844 350 849.5 300C855 250 859 200 860.3 150C861.7 100 860.3 50 859.7 25L859 0L900 0L900 25C900 50 900 100 900 150C900 200 900 250 900 300C900 350 900 400 900 450C900 500 900 550 900 575L900 600Z" fill="#bbbdee"></path></svg>